<?xml version="1.0" encoding="utf-8"?>
<!-- Generator: Adobe Illustrator 27.0.1, SVG Export Plug-In . SVG Version: 6.00 Build 0)  -->
<svg version="1.1" id="Layer_1" xmlns="http://www.w3.org/2000/svg" xmlns:xlink="http://www.w3.org/1999/xlink" x="0px" y="0px"
	 viewBox="0 0 1080 1080" style="enable-background:new 0 0 1080 1080;" xml:space="preserve">
<path d="M414.5,49.1C264.2,39.8,79.1,166.7,79.1,278.5c0,48.9,34.9,82.7,82.7,82.7c54.7,0,100.2-44.3,133.9-40.8
	c31.4,2.3,24.5,43.1,14,59.4c-106,165.4-391.3,534.6-245.7,632.4C225.8,1120.5,385.4,740.9,562.4,586c15.1-14,29.1-23.3,38.4-16.3
	c3.5,2.3,5.8,10.5-1.2,24.5c-57.1,116.5-187.5,389-51.2,432.1c46.6,14,100.2-8.2,150.2-38.4c88.5-54.7,276-213.1,331.9-411.1
	c16.3-57.1,26.8-136.3-40.8-139.8c-81.5-3.5-180.5,115.3-234.1,157.2c-23.3,18.6-36.1,24.5-43.1,21c-11.6-5.8-2.3-36.1,5.8-64.1
	c11.6-39.6,23.3-96.7-24.5-109.5c-69.9-17.5-180.5,62.9-216.6,85c-31.4,19.8-46.6,23.3-51.2,12.8c-4.7-9.3,9.3-28,44.3-55.9
	c177-146.7,464.7-199.1,539.2-242.2c85-48.9,54.7-179.4-90.8-180.5c-279.5-1.2-513.6,448.4-550.9,411.1
	c-9.3-9.3,9.3-44.3,48.9-107.1c24.5-38.4,67.5-110.6,88.5-173.5C541.4,84,492.5,53.8,414.5,49.1z"/>
</svg>
